<?xml version="1.0" standalone="no"?>
<!DOCTYPE svg PUBLIC "-//W3C//DTD SVG 20010904//EN"
 "http://www.w3.org/TR/2001/REC-SVG-20010904/DTD/svg10.dtd">
<svg version="1.0" xmlns="http://www.w3.org/2000/svg"
 width="208.000000pt" height="208.000000pt" viewBox="0 0 208.000000 208.000000"
 preserveAspectRatio="xMidYMid meet">
<metadata>
Created by potrace 1.14, written by Peter Selinger 2001-2017
</metadata>
<g transform="translate(0.000000,208.000000) scale(0.100000,-0.100000)"
fill="#000000" stroke="none">
<path d="M1065 2051 c-64 -37 -144 -122 -176 -186 -19 -40 -24 -67 -25 -135
-1 -46 3 -97 8 -113 6 -15 9 -30 7 -32 -2 -1 -24 15 -48 36 -39 35 -42 41 -30
56 13 16 12 17 -3 4 -16 -12 -22 -10 -52 12 l-33 26 -37 -25 c-20 -14 -36 -27
-36 -30 0 -2 17 7 37 20 l37 26 29 -27 c15 -15 24 -29 18 -31 -5 -2 -8 -9 -5
-17 3 -8 -6 -34 -21 -58 -33 -57 -71 -155 -80 -204 -9 -55 -28 -81 -21 -28 3
22 9 51 13 64 4 16 2 22 -4 18 -9 -6 -25 -64 -50 -177 -2 -8 -9 -59 -15 -114
l-13 -98 -42 5 c-47 5 -57 -7 -19 -25 19 -8 24 -17 21 -37 -2 -14 -7 -95 -10
-178 -6 -161 -12 -213 -26 -213 -11 0 -29 67 -29 110 0 62 -18 18 -22 -53 l-3
-67 35 -1 c19 -1 54 -1 76 0 23 2 45 -2 49 -8 3 -6 11 -11 16 -11 6 0 8 4 5 8
-7 11 92 -4 158 -23 28 -9 53 -20 56 -25 4 -7 15 -7 30 -2 l24 9 -22 12 c-18
10 -22 20 -21 64 0 66 28 142 52 141 9 0 44 -1 76 -2 l60 -2 -20 -44 c-39 -89
-36 -120 20 -229 28 -55 51 -110 51 -124 0 -14 -13 -38 -31 -56 l-31 -31 -15
28 c-23 45 -25 23 -2 -28 11 -27 22 -64 23 -85 1 -20 6 -44 10 -54 12 -26 0
-32 -28 -13 -14 9 -29 16 -33 16 -4 0 6 -9 22 -20 17 -11 35 -18 42 -16 15 6
23 -17 19 -52 -2 -15 -2 -22 1 -16 2 6 29 14 60 17 31 3 60 12 64 19 6 9 9 7
9 -7 0 -11 5 -27 10 -35 6 -10 7 10 3 56 l-6 71 79 85 c44 48 91 92 106 99 15
7 29 22 32 32 3 14 11 18 25 14 12 -3 21 -1 21 5 0 6 7 7 16 4 8 -3 12 -2 9 4
-13 21 159 67 207 55 24 -6 75 -81 58 -87 -20 -7 -110 4 -104 13 3 5 -5 7 -18
5 -13 -3 -29 -5 -36 -5 -7 -1 -10 -5 -7 -11 3 -5 2 -10 -4 -10 -5 0 -12 4 -15
9 -6 8 -63 -6 -76 -19 -3 -3 -27 -16 -55 -30 -27 -14 -66 -42 -88 -62 -21 -21
-42 -38 -46 -38 -8 0 -18 -17 -22 -38 -1 -4 -5 -17 -10 -29 -8 -22 3 -30 35
-24 5 1 -12 -18 -38 -43 -25 -25 -46 -51 -46 -58 1 -7 12 0 25 17 14 17 25 26
25 21 0 -6 7 -1 16 10 8 10 13 13 9 6 -5 -10 -1 -10 19 -1 19 9 29 9 40 0 20
-17 49 -2 111 57 14 13 25 21 25 18 0 -3 19 5 43 18 23 13 61 29 85 36 23 7
42 17 42 22 0 4 7 8 15 8 17 0 17 1 19 47 1 18 5 36 9 39 4 4 0 12 -8 18 -12
9 -5 10 32 8 29 -2 53 -10 61 -20 18 -23 15 -29 -18 -36 -42 -8 -80 -48 -79
-83 1 -23 2 -24 6 -6 2 12 18 34 36 49 l31 26 43 -45 c23 -25 44 -40 46 -34 2
6 25 -33 51 -86 l48 -97 64 0 64 0 0 1040 0 1040 -378 0 -378 0 -32 -117 c-24
-89 -72 -300 -72 -317 0 -1 -30 12 -66 30 -37 18 -103 43 -146 55 -93 27 -91
21 -28 154 44 91 94 155 142 178 24 12 28 17 13 17 -11 0 -42 -13 -70 -29z
m-47 -68 c-40 -45 -128 -260 -128 -315 -1 -21 -1 -22 -12 -4 -15 27 -5 144 18
191 18 40 112 145 129 145 4 0 1 -8 -7 -17z m-84 -278 c-7 -19 -14 -47 -15
-62 0 -26 -1 -26 -9 -7 -11 28 8 104 26 104 11 0 10 -6 -2 -35z m61 15 c-3 -5
0 -7 8 -4 39 15 291 -130 326 -187 11 -18 21 -25 23 -18 5 16 88 -107 88 -132
0 -10 5 -21 10 -24 41 -25 -38 134 -94 190 l-46 45 62 -31 c104 -53 214 -179
258 -296 27 -72 40 -133 29 -133 -5 0 -9 5 -9 10 0 6 -14 10 -31 10 -36 0 -64
13 -101 48 -15 14 -30 23 -33 20 -3 -3 11 -20 31 -38 24 -20 30 -30 18 -27
-10 3 -40 8 -66 12 -27 3 -48 10 -48 16 0 5 -4 9 -9 9 -6 0 -6 -12 -1 -31 22
-76 31 -187 20 -256 -15 -97 -51 -214 -63 -206 -6 4 -8 -2 -5 -15 4 -12 2 -20
-3 -16 -5 3 -9 -6 -9 -21 0 -14 -9 -33 -20 -42 -11 -10 -20 -27 -20 -38 0 -11
-4 -25 -8 -32 -6 -10 -6 122 1 275 1 28 0 52 -3 52 -3 0 -17 -26 -33 -58 -26
-55 -27 -52 -6 33 6 22 9 64 7 92 -3 50 -2 53 24 59 27 5 45 21 35 30 -2 2
-21 5 -41 6 -20 1 -36 5 -36 10 0 5 5 6 11 2 8 -4 9 0 4 15 -4 14 -1 23 9 27
20 8 20 33 2 102 -15 55 -37 81 -68 82 -10 0 -18 5 -18 11 0 6 -11 25 -24 42
-13 18 -35 55 -49 82 -37 74 -92 138 -128 150 -25 9 -36 21 -46 50 -21 60 0
135 38 135 11 0 17 -4 14 -10z m-117 -176 c-10 -9 -99 77 -92 88 4 6 27 -10
52 -36 25 -25 43 -48 40 -52z m-13 -16 c5 -4 -16 0 -48 11 -31 11 -57 16 -57
10 0 -5 5 -9 10 -9 21 0 8 -17 -25 -33 -19 -9 -35 -14 -35 -11 0 8 41 87 52
102 10 11 23 3 103 -70z m75 33 c5 -17 5 -29 0 -26 -4 3 -11 -1 -13 -7 -3 -7
-6 7 -6 31 -1 49 5 50 19 2z m-24 -66 c3 -19 21 -54 39 -77 54 -70 105 -173
106 -215 1 -21 5 -51 9 -68 7 -26 8 -24 9 20 l2 50 20 -55 c11 -30 23 -64 26
-75 11 -33 31 -48 58 -41 13 3 27 2 30 -4 4 -6 -19 -11 -62 -12 -73 -1 -149
-5 -173 -7 -8 0 -10 -4 -5 -10 16 -14 103 -27 188 -26 l77 0 11 -32 c5 -17 7
-49 4 -70 -9 -52 -44 -160 -67 -205 -10 -21 -16 -38 -12 -38 7 0 34 27 34 35
0 3 18 36 40 72 l40 67 -1 -85 c0 -46 -6 -120 -12 -164 l-12 -80 -78 -52 c-43
-29 -82 -53 -87 -53 -4 0 -11 12 -14 26 -4 15 -25 56 -47 92 -45 76 -51 130
-19 200 18 41 26 46 62 43 32 -3 28 18 -4 23 -40 6 -295 18 -358 16 -50 -1
-70 -10 -22 -10 l31 0 -13 -32 c-13 -30 -25 -91 -26 -129 0 -12 -8 -14 -30
-11 -31 4 -51 29 -56 67 -7 63 -24 265 -24 295 l0 35 78 0 c90 0 132 10 132
30 0 12 -16 15 -87 13 l-88 -2 78 -3 c107 -5 89 -23 -24 -23 -72 0 -89 3 -89
15 0 8 4 15 8 15 4 0 6 16 4 35 -5 45 18 212 28 194 4 -8 12 -57 19 -109 7
-52 15 -98 19 -102 4 -4 5 47 3 113 -4 166 4 223 37 255 39 38 110 67 164 68
27 1 48 2 48 4 0 2 -5 12 -10 23 -7 12 -7 19 -1 19 6 0 13 -16 17 -35z m-120
9 c-1 -9 -18 -23 -37 -31 -18 -8 -45 -24 -58 -36 l-25 -22 16 25 c14 23 84 79
100 80 3 0 5 -7 4 -16z m766 -54 c53 -50 59 -59 41 -60 -13 0 -23 3 -23 8 0 4
-21 31 -46 60 -25 28 -43 52 -40 52 3 0 34 -27 68 -60z m102 -131 c13 -28 22
-57 19 -65 -3 -8 -1 -14 5 -14 19 0 35 -119 29 -216 -9 -133 -22 -143 -22 -18
-1 66 3 104 10 104 6 0 5 3 -2 8 -6 4 -19 36 -28 71 -9 36 -30 91 -46 123 -27
54 -28 58 -10 58 13 0 27 -16 45 -51z m-126 -179 c117 -16 126 -20 135 -71 15
-82 -10 -250 -51 -344 l-17 -40 -5 45 c-3 25 -2 52 2 61 15 33 20 125 9 165
-24 88 -87 122 -139 74 -12 -12 -22 -19 -22 -18 -1 2 -7 36 -14 76 l-12 73 23
-6 c14 -3 54 -10 91 -15z m26 -123 c13 -13 27 -43 31 -66 8 -49 -1 -139 -16
-161 -8 -12 -9 -11 -5 5 11 48 17 127 11 155 -4 20 -17 36 -36 46 -29 15 -31
14 -60 -17 -16 -17 -29 -42 -29 -54 0 -13 -4 -26 -8 -29 -9 -6 1 79 13 107 8
18 37 35 63 36 7 1 23 -10 36 -22z m-994 3 c0 -13 -11 -13 -30 0 -12 8 -11 10
8 10 12 0 22 -4 22 -10z m-4 -151 c3 -133 -9 -128 -23 12 -9 86 -6 122 10 116
7 -2 12 -47 13 -128z m632 124 c-26 -2 -71 -2 -100 0 -29 2 -8 3 47 3 55 0 79
-1 53 -3z m373 -65 c3 -48 -11 -179 -20 -195 -5 -10 -22 -29 -38 -43 -15 -14
-25 -21 -21 -16 4 5 2 16 -5 24 -9 12 -9 14 0 9 21 -13 36 34 34 101 -2 75 25
186 40 160 5 -9 10 -27 10 -40z m-122 -123 c-2 -41 -7 -75 -11 -75 -4 0 -8 -5
-8 -11 0 -5 4 -8 8 -5 4 2 14 1 21 -3 10 -6 9 -10 -3 -14 -9 -4 -21 2 -29 13
-11 16 -11 31 1 95 8 41 17 75 19 75 2 0 3 -34 2 -75z m-883 -107 c14 -43 30
-80 35 -83 20 -13 6 -22 -37 -24 l-46 -1 6 97 c8 130 8 131 13 108 2 -11 16
-55 29 -97z m291 48 c2 -2 -4 -19 -12 -39 -8 -20 -15 -64 -15 -97 0 -33 -2
-60 -4 -60 -1 0 -16 4 -32 9 -16 5 -41 12 -56 15 -26 6 -27 8 -24 70 1 37 9
74 18 88 14 22 22 24 69 21 30 -3 55 -5 56 -7z m719 -80 c-9 -30 -28 -73 -42
-97 -14 -24 -23 -35 -19 -24 21 57 43 145 35 140 -6 -3 0 9 13 28 28 43 33 24
13 -47z m-36 -5 c0 -5 -9 -11 -21 -14 -16 -4 -18 -3 -8 9 13 16 29 19 29 5z
m-1078 -46 c3 -14 1 -25 -3 -25 -5 0 -9 11 -9 25 0 14 2 25 4 25 2 0 6 -11 8
-25z m1095 -62 c-4 -3 2 -16 13 -28 27 -29 31 -78 8 -83 -12 -2 -18 3 -18 15
-1 10 -8 29 -16 43 -11 18 -13 19 -9 5 4 -11 9 -32 12 -47 8 -39 -22 -37 -42
2 -9 17 -12 30 -8 30 5 0 19 16 32 35 13 19 26 35 29 35 3 0 2 -3 -1 -7z m260
-298 c9 -25 -2 -27 -22 -5 -17 18 -17 20 -1 20 9 0 19 -7 23 -15z"/>
<path d="M850 925 c-26 -31 13 -82 44 -56 19 16 21 42 4 59 -16 16 -33 15 -48
-3z"/>
<path d="M1271 2013 c-30 -102 -62 -245 -59 -262 2 -9 12 22 22 69 10 47 29
123 43 169 13 46 22 86 19 88 -2 3 -14 -26 -25 -64z"/>
<path d="M604 1638 l-19 -23 23 19 c21 18 27 26 19 26 -2 0 -12 -10 -23 -22z"/>
<path d="M524 1565 c-26 -31 -44 -58 -42 -61 3 -3 16 10 29 28 12 18 34 45 47
61 14 15 23 27 20 27 -4 0 -28 -25 -54 -55z"/>
<path d="M495 1500 c-4 -6 -10 -8 -15 -5 -5 3 -16 -8 -25 -24 -19 -39 -19 -55
1 -18 8 15 19 25 23 23 5 -3 16 3 26 14 10 11 13 20 7 20 -6 0 -14 -5 -17 -10z"/>
<path d="M476 1448 c-2 -7 -16 -62 -31 -123 -42 -168 -145 -449 -188 -509 -12
-17 -15 -27 -7 -24 7 2 32 34 57 72 24 37 39 65 33 61 -14 -9 -12 11 5 45 31
60 153 490 138 490 -2 0 -5 -6 -7 -12z"/>
<path d="M382 1005 c-35 -71 -36 -84 -3 -32 l21 32 1 -30 c1 -25 3 -22 14 19
22 79 4 85 -33 11z"/>
<path d="M393 906 c-10 -33 0 -292 12 -304 12 -13 13 9 4 78 -6 41 -9 117 -7
168 2 50 3 92 3 92 -1 0 -6 -15 -12 -34z"/>
<path d="M7 573 c7 -2 19 -2 26 0 6 3 1 5 -13 5 -14 0 -19 -2 -13 -5z"/>
<path d="M380 570 c138 -19 251 -63 371 -143 36 -25 77 -50 90 -56 45 -22 -31
37 -115 89 -109 68 -221 107 -327 114 -81 5 -82 5 -19 -4z"/>
<path d="M63 563 c9 -2 23 -2 30 0 6 3 -1 5 -18 5 -16 0 -22 -2 -12 -5z"/>
<path d="M120 554 c56 -15 160 -30 152 -22 -9 9 -114 29 -147 27 -12 -1 -14
-3 -5 -5z"/>
<path d="M846 503 c-10 -10 -7 -25 3 -18 5 3 12 -5 14 -17 4 -20 4 -20 6 4 1
27 -11 43 -23 31z"/>
<path d="M598 433 c7 -3 16 -2 19 1 4 3 -2 6 -13 5 -11 0 -14 -3 -6 -6z"/>
<path d="M40 399 c52 -35 100 -61 100 -55 0 6 -128 86 -137 86 -5 0 12 -14 37
-31z"/>
<path d="M919 383 c18 -24 35 -43 37 -43 10 0 -16 36 -42 60 -26 23 -25 22 5
-17z"/>
<path d="M439 233 c-13 -16 -12 -17 4 -4 16 13 21 21 13 21 -2 0 -10 -8 -17
-17z"/>
<path d="M795 170 c39 -10 81 -21 95 -25 19 -5 18 -3 -6 8 -31 15 -126 38
-147 36 -7 -1 20 -9 58 -19z"/>
<path d="M648 173 c7 -3 16 -2 19 1 4 3 -2 6 -13 5 -11 0 -14 -3 -6 -6z"/>
<path d="M556 155 c-3 -9 -16 -20 -28 -25 -16 -6 -18 -9 -6 -9 18 -1 48 24 48
40 0 14 -7 11 -14 -6z"/>
<path d="M437 129 c7 -7 15 -10 18 -7 3 3 -2 9 -12 12 -14 6 -15 5 -6 -5z"/>
<path d="M930 130 c8 -5 20 -10 25 -10 6 0 3 5 -5 10 -8 5 -19 10 -25 10 -5 0
-3 -5 5 -10z"/>
<path d="M478 113 c7 -3 16 -2 19 1 4 3 -2 6 -13 5 -11 0 -14 -3 -6 -6z"/>
<path d="M763 23 c9 -2 23 -2 30 0 6 3 -1 5 -18 5 -16 0 -22 -2 -12 -5z"/>
<path d="M818 13 c6 -2 18 -2 25 0 6 3 1 5 -13 5 -14 0 -19 -2 -12 -5z"/>
<path d="M528 3 c7 -3 16 -2 19 1 4 3 -2 6 -13 5 -11 0 -14 -3 -6 -6z"/>
<path d="M868 3 c6 -2 18 -2 25 0 6 3 1 5 -13 5 -14 0 -19 -2 -12 -5z"/>
</g>
</svg>
